<?xml version="1.0" encoding="UTF-8" standalone="no"?>
<!DOCTYPE svg PUBLIC "-//W3C//DTD SVG 1.0//EN" "http://www.w3.org/TR/2001/PR-SVG-20010719/DTD/svg10.dtd">
<svg width="47cm" height="19cm" viewBox="-61 -21 922 362" xmlns="http://www.w3.org/2000/svg" xmlns:xlink="http://www.w3.org/1999/xlink">
  <g>
    <rect style="fill: #ffffff" x="-60" y="-20" width="920" height="360"/>
    <rect style="fill: none; fill-opacity:0; stroke-width: 2; stroke: #000000" x="-60" y="-20" width="920" height="360"/>
    <text font-size="12.8" style="fill: #000000;text-anchor:middle;font-family:sans-serif;font-style:normal;font-weight:normal" x="400" y="163.9">
      <tspan x="400" y="163.9"></tspan>
    </text>
  </g>
  <g>
    <rect style="fill: #cccbd3" x="-20" y="60" width="420" height="200"/>
    <rect style="fill: none; fill-opacity:0; stroke-width: 2; stroke: #000000" x="-20" y="60" width="420" height="200"/>
    <text font-size="12.8" style="fill: #000000;text-anchor:middle;font-family:sans-serif;font-style:normal;font-weight:normal" x="190" y="163.9">
      <tspan x="190" y="163.9"></tspan>
    </text>
  </g>
  <text font-size="12.8" style="fill: #000000;text-anchor:start;font-family:sans-serif;font-style:normal;font-weight:normal" x="190" y="160">
    <tspan x="190" y="160"></tspan>
  </text>
  <g>
    <rect style="fill: #507dbc" x="420" y="0" width="300" height="140"/>
    <rect style="fill: none; fill-opacity:0; stroke-width: 2; stroke: #000000" x="420" y="0" width="300" height="140"/>
    <text font-size="12.8" style="fill: #000000;text-anchor:middle;font-family:sans-serif;font-style:normal;font-weight:normal" x="570" y="73.9">
      <tspan x="570" y="73.9"></tspan>
    </text>
  </g>
  <text font-size="12.8" style="fill: #000000;text-anchor:start;font-family:sans-serif;font-style:normal;font-weight:normal" x="190" y="160">
    <tspan x="190" y="160"></tspan>
  </text>
  <g>
    <rect style="fill: #507dbc" x="420" y="180" width="300" height="140"/>
    <rect style="fill: none; fill-opacity:0; stroke-width: 2; stroke: #000000" x="420" y="180" width="300" height="140"/>
    <text font-size="12.8" style="fill: #000000;text-anchor:middle;font-family:sans-serif;font-style:normal;font-weight:normal" x="570" y="253.9">
      <tspan x="570" y="253.9"></tspan>
    </text>
  </g>
  <g>
    <rect style="fill: #cccbd3" x="39.025" y="280" width="122.95" height="38"/>
    <rect style="fill: none; fill-opacity:0; stroke-width: 2; stroke: #000000" x="39.025" y="280" width="122.95" height="38"/>
    <text font-size="12.8" style="fill: #000000;text-anchor:middle;font-family:Montserrat;font-style:normal;font-weight:normal" x="100.5" y="303.4">
      <tspan x="100.5" y="303.4">Controller node</tspan>
    </text>
  </g>
  <g>
    <rect style="fill: #507dbc" x="220" y="280" width="124.1" height="38"/>
    <rect style="fill: none; fill-opacity:0; stroke-width: 2; stroke: #000000" x="220" y="280" width="124.1" height="38"/>
    <text font-size="12.8" style="fill: #ffffff;text-anchor:middle;font-family:Montserrat;font-style:normal;font-weight:normal" x="282.05" y="303.4">
      <tspan x="282.05" y="303.4">Storage node</tspan>
    </text>
  </g>
  <text font-size="12.8" style="fill: #000000;text-anchor:start;font-family:sans-serif;font-style:normal;font-weight:normal" x="100.5" y="299">
    <tspan x="100.5" y="299"></tspan>
    <tspan x="100.5" y="315"></tspan>
    <tspan x="100.5" y="331"></tspan>
  </text>
  <text font-size="12.8" style="fill: #000000;text-anchor:start;font-family:sans-serif;font-style:normal;font-weight:normal" x="100.5" y="299">
    <tspan x="100.5" y="299"></tspan>
  </text>
  <g>
    <rect style="fill: #f7a88a" x="0" y="140" width="144" height="40"/>
    <rect style="fill: none; fill-opacity:0; stroke-width: 2; stroke: #000000" x="0" y="140" width="144" height="40"/>
    <text font-size="12.8" style="fill: #000000;text-anchor:middle;font-family:Montserrat;font-style:normal;font-weight:normal" x="72" y="164.4">
      <tspan x="72" y="164.4">cinder-api</tspan>
    </text>
  </g>
  <g>
    <rect style="fill: #f7a88a" x="240" y="140" width="144" height="40"/>
    <rect style="fill: none; fill-opacity:0; stroke-width: 2; stroke: #000000" x="240" y="140" width="144" height="40"/>
    <text font-size="12.8" style="fill: #000000;text-anchor:middle;font-family:Montserrat;font-style:normal;font-weight:normal" x="312" y="164.4">
      <tspan x="312" y="164.4">cinder-scheduler</tspan>
    </text>
  </g>
  <g>
    <rect style="fill: #ffc192" x="160" y="80" width="144" height="40"/>
    <rect style="fill: none; fill-opacity:0; stroke-width: 2; stroke: #000000" x="160" y="80" width="144" height="40"/>
    <text font-size="12.8" style="fill: #000000;text-anchor:middle;font-family:Montserrat;font-style:normal;font-weight:normal" x="232" y="104.4">
      <tspan x="232" y="104.4">cinder-volume</tspan>
    </text>
  </g>
  <g>
    <rect style="fill: #ffc192" x="160" y="200" width="144" height="40"/>
    <rect style="fill: none; fill-opacity:0; stroke-width: 2; stroke: #000000" x="160" y="200" width="144" height="40"/>
    <text font-size="12.8" style="fill: #000000;text-anchor:middle;font-family:Montserrat;font-style:normal;font-weight:normal" x="232" y="224.4">
      <tspan x="232" y="224.4">cinder-volume</tspan>
    </text>
  </g>
  <g>
    <path style="fill: #ffc192" d="M 520 52.6667 C 536,43.1667 544,40 560,40 C 576,40 584,43.1667 600,52.6667 L 600,103.333 C 584,112.833 576,116 560,116 C 544,116 536,112.833 520,103.333 L 520,52.6667z"/>
    <path style="fill: none; fill-opacity:0; stroke-width: 2; stroke: #000000" d="M 520 52.6667 C 536,43.1667 544,40 560,40 C 576,40 584,43.1667 600,52.6667 L 600,103.333 C 584,112.833 576,116 560,116 C 544,116 536,112.833 520,103.333 L 520,52.6667"/>
    <path style="fill: none; fill-opacity:0; stroke-width: 2; stroke: #000000" d="M 520 52.6667 C 536,62.1667 544,65.3333 560,65.3333 C 576,65.3333 584,62.1667 600,52.6667"/>
    <text font-size="12.8" style="fill: #000000;text-anchor:middle;font-family:Montserrat;font-style:normal;font-weight:normal" x="560" y="80.3333">
      <tspan x="560" y="80.3333">Storage</tspan>
      <tspan x="560" y="96.3333">Backend</tspan>
    </text>
  </g>
  <g>
    <path style="fill: #ffc192" d="M 520 232.667 C 536,223.167 544,220 560,220 C 576,220 584,223.167 600,232.667 L 600,283.333 C 584,292.833 576,296 560,296 C 544,296 536,292.833 520,283.333 L 520,232.667z"/>
    <path style="fill: none; fill-opacity:0; stroke-width: 2; stroke: #000000" d="M 520 232.667 C 536,223.167 544,220 560,220 C 576,220 584,223.167 600,232.667 L 600,283.333 C 584,292.833 576,296 560,296 C 544,296 536,292.833 520,283.333 L 520,232.667"/>
    <path style="fill: none; fill-opacity:0; stroke-width: 2; stroke: #000000" d="M 520 232.667 C 536,242.167 544,245.333 560,245.333 C 576,245.333 584,242.167 600,232.667"/>
    <text font-size="12.8" style="fill: #000000;text-anchor:middle;font-family:Montserrat;font-style:normal;font-weight:normal" x="560" y="260.333">
      <tspan x="560" y="260.333">Storage</tspan>
      <tspan x="560" y="276.333">Backend</tspan>
    </text>
  </g>
  <g>
    <path style="fill: #f7a88a" d="M 0 87.3333 C 8,81.8333 12,80 20,80 C 28,80 32,81.8333 40,87.3333 L 40,116.667 C 32,122.167 28,124 20,124 C 12,124 8,122.167 0,116.667 L 0,87.3333z"/>
    <path style="fill: none; fill-opacity:0; stroke-width: 2; stroke: #000000" d="M 0 87.3333 C 8,81.8333 12,80 20,80 C 28,80 32,81.8333 40,87.3333 L 40,116.667 C 32,122.167 28,124 20,124 C 12,124 8,122.167 0,116.667 L 0,87.3333"/>
    <path style="fill: none; fill-opacity:0; stroke-width: 2; stroke: #000000" d="M 0 87.3333 C 8,92.8333 12,94.6667 20,94.6667 C 28,94.6667 32,92.8333 40,87.3333"/>
    <text font-size="12.8" style="fill: #000000;text-anchor:middle;font-family:Montserrat;font-style:normal;font-weight:normal" x="20" y="109.667">
      <tspan x="20" y="109.667">DB</tspan>
    </text>
  </g>
  <g>
    <line style="fill: none; fill-opacity:0; stroke-width: 2; stroke: #000000" x1="315.928" y1="229.723" x2="509.324" y2="252.129"/>
    <polygon style="fill: #000000" points="316.504,224.757 305.995,228.573 315.353,234.69 "/>
    <polygon style="fill: none; fill-opacity:0; stroke-width: 2; stroke: #000000" points="316.504,224.757 305.995,228.573 315.353,234.69 "/>
    <polygon style="fill: #000000" points="516.774,252.992 506.265,256.808 509.324,252.129 507.416,246.874 "/>
    <polygon style="fill: none; fill-opacity:0; stroke-width: 2; stroke: #000000" points="516.774,252.992 506.265,256.808 509.324,252.129 507.416,246.874 "/>
  </g>
  <g>
    <line style="fill: none; fill-opacity:0; stroke-width: 2; stroke: #000000" x1="315.977" y1="94.3674" x2="509.281" y2="81.4019"/>
    <polygon style="fill: #000000" points="315.642,89.3786 305.999,95.0367 316.311,99.3562 "/>
    <polygon style="fill: none; fill-opacity:0; stroke-width: 2; stroke: #000000" points="315.642,89.3786 305.999,95.0367 316.311,99.3562 "/>
    <polygon style="fill: #000000" points="516.764,80.9 507.121,86.558 509.281,81.4019 506.452,76.5804 "/>
    <polygon style="fill: none; fill-opacity:0; stroke-width: 2; stroke: #000000" points="516.764,80.9 507.121,86.558 509.281,81.4019 506.452,76.5804 "/>
  </g>
  <g>
    <line style="fill: none; fill-opacity:0; stroke-width: 2; stroke: #000000" x1="144.949" y1="160" x2="229.315" y2="160"/>
    <polygon style="fill: #000000" points="236.815,160 226.815,165 229.315,160 226.815,155 "/>
    <polygon style="fill: none; fill-opacity:0; stroke-width: 2; stroke: #000000" points="236.815,160 226.815,165 229.315,160 226.815,155 "/>
  </g>
  <g>
    <line style="fill: none; fill-opacity:0; stroke-width: 2; stroke: #000000" x1="275.212" y1="187.591" x2="267.777" y2="193.167"/>
    <polygon style="fill: #000000" points="278.212,191.591 283.212,181.591 272.212,183.591 "/>
    <polygon style="fill: none; fill-opacity:0; stroke-width: 2; stroke: #000000" points="278.212,191.591 283.212,181.591 272.212,183.591 "/>
    <polygon style="fill: #000000" points="261.777,197.667 266.777,187.667 267.777,193.167 272.777,195.667 "/>
    <polygon style="fill: none; fill-opacity:0; stroke-width: 2; stroke: #000000" points="261.777,197.667 266.777,187.667 267.777,193.167 272.777,195.667 "/>
  </g>
  <g>
    <line style="fill: none; fill-opacity:0; stroke-width: 2; stroke: #000000" x1="268.788" y1="127.591" x2="276.223" y2="133.167"/>
    <polygon style="fill: #000000" points="271.788,123.591 260.788,121.591 265.788,131.591 "/>
    <polygon style="fill: none; fill-opacity:0; stroke-width: 2; stroke: #000000" points="271.788,123.591 260.788,121.591 265.788,131.591 "/>
    <polygon style="fill: #000000" points="282.223,137.667 271.223,135.667 276.223,133.167 277.223,127.667 "/>
    <polygon style="fill: none; fill-opacity:0; stroke-width: 2; stroke: #000000" points="282.223,137.667 271.223,135.667 276.223,133.167 277.223,127.667 "/>
  </g>
</svg>
