<?xml version="1.0" encoding="UTF-8" standalone="no"?>
<!DOCTYPE svg PUBLIC "-//W3C//DTD SVG 1.0//EN" "http://www.w3.org/TR/2001/PR-SVG-20010719/DTD/svg10.dtd">
<svg width="47cm" height="19cm" viewBox="-61 -21 922 362" xmlns="http://www.w3.org/2000/svg" xmlns:xlink="http://www.w3.org/1999/xlink">
  <g>
    <rect style="fill: #ffffff" x="-60" y="-20" width="920" height="360"/>
    <rect style="fill: none; fill-opacity:0; stroke-width: 2; stroke: #000000" x="-60" y="-20" width="920" height="360"/>
    <text font-size="12.7998" style="fill: #000000;text-anchor:middle;font-family:sans-serif;font-style:normal;font-weight:normal" x="400" y="163.9">
      <tspan x="400" y="163.9"></tspan>
    </text>
  </g>
  <g>
    <rect style="fill: #ad7fa8" x="-20" y="60" width="420" height="200"/>
    <rect style="fill: none; fill-opacity:0; stroke-width: 2; stroke: #000000" x="-20" y="60" width="420" height="200"/>
    <text font-size="12.7998" style="fill: #000000;text-anchor:middle;font-family:sans-serif;font-style:normal;font-weight:normal" x="190" y="163.9">
      <tspan x="190" y="163.9"></tspan>
    </text>
  </g>
  <text font-size="12.7998" style="fill: #000000;text-anchor:start;font-family:sans-serif;font-style:normal;font-weight:normal" x="190" y="160">
    <tspan x="190" y="160"></tspan>
  </text>
  <g>
    <rect style="fill: #fce94f" x="420" y="60" width="300" height="80"/>
    <rect style="fill: none; fill-opacity:0; stroke-width: 2; stroke: #000000" x="420" y="60" width="300" height="80"/>
    <text font-size="12.7998" style="fill: #000000;text-anchor:middle;font-family:sans-serif;font-style:normal;font-weight:normal" x="570" y="103.9">
      <tspan x="570" y="103.9"></tspan>
    </text>
  </g>
  <text font-size="12.7998" style="fill: #000000;text-anchor:start;font-family:sans-serif;font-style:normal;font-weight:normal" x="190" y="160">
    <tspan x="190" y="160"></tspan>
  </text>
  <g>
    <rect style="fill: #fce94f" x="420" y="180" width="300" height="80"/>
    <rect style="fill: none; fill-opacity:0; stroke-width: 2; stroke: #000000" x="420" y="180" width="300" height="80"/>
    <text font-size="12.7998" style="fill: #000000;text-anchor:middle;font-family:sans-serif;font-style:normal;font-weight:normal" x="570" y="223.9">
      <tspan x="570" y="223.9"></tspan>
    </text>
  </g>
  <g>
    <rect style="fill: #ad7fa8" x="40" y="280" width="121" height="38"/>
    <rect style="fill: none; fill-opacity:0; stroke-width: 2; stroke: #000000" x="40" y="280" width="121" height="38"/>
    <text font-size="12.7998" style="fill: #000000;text-anchor:middle;font-family:sans-serif;font-style:normal;font-weight:normal" x="100.5" y="302.9">
      <tspan x="100.5" y="302.9">Controller node</tspan>
    </text>
  </g>
  <g>
    <rect style="fill: #fce94f" x="220" y="280" width="124.1" height="38"/>
    <rect style="fill: none; fill-opacity:0; stroke-width: 2; stroke: #000000" x="220" y="280" width="124.1" height="38"/>
    <text font-size="12.7998" style="fill: #000000;text-anchor:middle;font-family:sans-serif;font-style:normal;font-weight:normal" x="282.05" y="302.9">
      <tspan x="282.05" y="302.9">Storage node</tspan>
    </text>
  </g>
  <text font-size="12.7998" style="fill: #000000;text-anchor:start;font-family:sans-serif;font-style:normal;font-weight:normal" x="100.5" y="299">
    <tspan x="100.5" y="299"></tspan>
    <tspan x="100.5" y="315"></tspan>
    <tspan x="100.5" y="331"></tspan>
  </text>
  <text font-size="12.7998" style="fill: #000000;text-anchor:start;font-family:sans-serif;font-style:normal;font-weight:normal" x="100.5" y="299">
    <tspan x="100.5" y="299"></tspan>
  </text>
  <g>
    <rect style="fill: #add8e6" x="0" y="140" width="144" height="40"/>
    <rect style="fill: none; fill-opacity:0; stroke-width: 2; stroke: #000000" x="0" y="140" width="144" height="40"/>
    <text font-size="12.7998" style="fill: #000000;text-anchor:middle;font-family:sans-serif;font-style:normal;font-weight:normal" x="72" y="163.9">
      <tspan x="72" y="163.9">cinder-api</tspan>
    </text>
  </g>
  <g>
    <rect style="fill: #90ee90" x="240" y="140" width="144" height="40"/>
    <rect style="fill: none; fill-opacity:0; stroke-width: 2; stroke: #000000" x="240" y="140" width="144" height="40"/>
    <text font-size="12.7998" style="fill: #000000;text-anchor:middle;font-family:sans-serif;font-style:normal;font-weight:normal" x="312" y="163.9">
      <tspan x="312" y="163.9">cinder-scheduler</tspan>
    </text>
  </g>
  <g>
    <rect style="fill: #ffff00" x="440" y="80" width="144" height="40"/>
    <rect style="fill: none; fill-opacity:0; stroke-width: 2; stroke: #000000" x="440" y="80" width="144" height="40"/>
    <text font-size="12.7998" style="fill: #000000;text-anchor:middle;font-family:sans-serif;font-style:normal;font-weight:normal" x="512" y="103.9">
      <tspan x="512" y="103.9">cinder-volume</tspan>
    </text>
  </g>
  <g>
    <rect style="fill: #ffff00" x="440" y="200" width="144" height="40"/>
    <rect style="fill: none; fill-opacity:0; stroke-width: 2; stroke: #000000" x="440" y="200" width="144" height="40"/>
    <text font-size="12.7998" style="fill: #000000;text-anchor:middle;font-family:sans-serif;font-style:normal;font-weight:normal" x="512" y="223.9">
      <tspan x="512" y="223.9">cinder-volume</tspan>
    </text>
  </g>
  <g>
    <path style="fill: #ffa500" d="M 620 72.6667 C 636,63.1667 644,60 660,60 C 676,60 684,63.1667 700,72.6667 L 700,123.333 C 684,132.833 676,136 660,136 C 644,136 636,132.833 620,123.333 L 620,72.6667z"/>
    <path style="fill: none; fill-opacity:0; stroke-width: 2; stroke: #000000" d="M 620 72.6667 C 636,63.1667 644,60 660,60 C 676,60 684,63.1667 700,72.6667 L 700,123.333 C 684,132.833 676,136 660,136 C 644,136 636,132.833 620,123.333 L 620,72.6667"/>
    <path style="fill: none; fill-opacity:0; stroke-width: 2; stroke: #000000" d="M 620 72.6667 C 636,82.1667 644,85.3333 660,85.3333 C 676,85.3333 684,82.1667 700,72.6667"/>
    <text font-size="12.7998" style="fill: #000000;text-anchor:middle;font-family:sans-serif;font-style:normal;font-weight:normal" x="660" y="100.333">
      <tspan x="660" y="100.333">Storage</tspan>
      <tspan x="660" y="116.333">Backend</tspan>
    </text>
  </g>
  <g>
    <path style="fill: #ffa500" d="M 620 192.667 C 636,183.167 644,180 660,180 C 676,180 684,183.167 700,192.667 L 700,243.333 C 684,252.833 676,256 660,256 C 644,256 636,252.833 620,243.333 L 620,192.667z"/>
    <path style="fill: none; fill-opacity:0; stroke-width: 2; stroke: #000000" d="M 620 192.667 C 636,183.167 644,180 660,180 C 676,180 684,183.167 700,192.667 L 700,243.333 C 684,252.833 676,256 660,256 C 644,256 636,252.833 620,243.333 L 620,192.667"/>
    <path style="fill: none; fill-opacity:0; stroke-width: 2; stroke: #000000" d="M 620 192.667 C 636,202.167 644,205.333 660,205.333 C 676,205.333 684,202.167 700,192.667"/>
    <text font-size="12.7998" style="fill: #000000;text-anchor:middle;font-family:sans-serif;font-style:normal;font-weight:normal" x="660" y="220.333">
      <tspan x="660" y="220.333">Storage</tspan>
      <tspan x="660" y="236.333">Backend</tspan>
    </text>
  </g>
  <g>
    <line style="fill: none; fill-opacity:0; stroke-width: 2; stroke: #000000" x1="595.996" y1="218.865" x2="609.272" y2="218.686"/>
    <polygon style="fill: #000000" points="595.929,213.865 585.997,219 596.064,223.864 "/>
    <polygon style="fill: none; fill-opacity:0; stroke-width: 2; stroke: #000000" points="595.929,213.865 585.997,219 596.064,223.864 "/>
    <polygon style="fill: #000000" points="616.771,218.584 606.84,223.719 609.272,218.686 606.705,213.72 "/>
    <polygon style="fill: none; fill-opacity:0; stroke-width: 2; stroke: #000000" points="616.771,218.584 606.84,223.719 609.272,218.686 606.705,213.72 "/>
  </g>
  <g>
    <line style="fill: none; fill-opacity:0; stroke-width: 2; stroke: #000000" x1="595.996" y1="98.8649" x2="609.272" y2="98.6855"/>
    <polygon style="fill: #000000" points="595.929,93.8654 585.997,99 596.064,103.864 "/>
    <polygon style="fill: none; fill-opacity:0; stroke-width: 2; stroke: #000000" points="595.929,93.8654 585.997,99 596.064,103.864 "/>
    <polygon style="fill: #000000" points="616.771,98.5842 606.84,103.719 609.272,98.6855 606.705,93.7197 "/>
    <polygon style="fill: none; fill-opacity:0; stroke-width: 2; stroke: #000000" points="616.771,98.5842 606.84,103.719 609.272,98.6855 606.705,93.7197 "/>
  </g>
  <g>
    <rect style="fill: #bfbfbf" x="440" y="280" width="144" height="40"/>
    <rect style="fill: none; fill-opacity:0; stroke-width: 2; stroke: #000000" x="440" y="280" width="144" height="40"/>
    <text font-size="12.7998" style="fill: #000000;text-anchor:middle;font-family:sans-serif;font-style:normal;font-weight:normal" x="512" y="303.9">
      <tspan x="512" y="303.9">cinder-backup</tspan>
    </text>
  </g>
  <g>
    <line style="fill: none; fill-opacity:0; stroke-width: 2; stroke: #000000" x1="137.984" y1="180.995" x2="436.738" y2="276.053"/>
    <polygon style="fill: #000000" points="443.885,278.327 432.84,280.06 436.738,276.053 435.872,270.53 "/>
    <polygon style="fill: none; fill-opacity:0; stroke-width: 2; stroke: #000000" points="443.885,278.327 432.84,280.06 436.738,276.053 435.872,270.53 "/>
  </g>
  <g>
    <rect style="fill: #bfbfbf" x="440" y="0" width="144" height="40"/>
    <rect style="fill: none; fill-opacity:0; stroke-width: 2; stroke: #000000" x="440" y="0" width="144" height="40"/>
    <text font-size="12.7998" style="fill: #000000;text-anchor:middle;font-family:sans-serif;font-style:normal;font-weight:normal" x="512" y="23.9">
      <tspan x="512" y="23.9">cinder-backup</tspan>
    </text>
  </g>
  <g>
    <line style="fill: none; fill-opacity:0; stroke-width: 2; stroke: #000000" x1="137.984" y1="139.005" x2="436.738" y2="43.9469"/>
    <polygon style="fill: #000000" points="443.885,41.6729 435.872,49.4695 436.738,43.9469 432.84,39.9403 "/>
    <polygon style="fill: none; fill-opacity:0; stroke-width: 2; stroke: #000000" points="443.885,41.6729 435.872,49.4695 436.738,43.9469 432.84,39.9403 "/>
  </g>
  <g>
    <path style="fill: #e5e5e5" d="M 740 12.6667 C 756,3.16667 764,0 780,0 C 796,0 804,3.16667 820,12.6667 L 820,63.3333 C 804,72.8333 796,76 780,76 C 764,76 756,72.8333 740,63.3333 L 740,12.6667z"/>
    <path style="fill: none; fill-opacity:0; stroke-width: 2; stroke: #000000" d="M 740 12.6667 C 756,3.16667 764,0 780,0 C 796,0 804,3.16667 820,12.6667 L 820,63.3333 C 804,72.8333 796,76 780,76 C 764,76 756,72.8333 740,63.3333 L 740,12.6667"/>
    <path style="fill: none; fill-opacity:0; stroke-width: 2; stroke: #000000" d="M 740 12.6667 C 756,22.1667 764,25.3333 780,25.3333 C 796,25.3333 804,22.1667 820,12.6667"/>
    <text font-size="12.7998" style="fill: #000000;text-anchor:middle;font-family:sans-serif;font-style:normal;font-weight:normal" x="780" y="40.3333">
      <tspan x="780" y="40.3333">Backup</tspan>
      <tspan x="780" y="56.3333">Backend</tspan>
    </text>
  </g>
  <g>
    <path style="fill: #e5e5e5" d="M 740 252.667 C 756,243.167 764,240 780,240 C 796,240 804,243.167 820,252.667 L 820,303.333 C 804,312.833 796,316 780,316 C 764,316 756,312.833 740,303.333 L 740,252.667z"/>
    <path style="fill: none; fill-opacity:0; stroke-width: 2; stroke: #000000" d="M 740 252.667 C 756,243.167 764,240 780,240 C 796,240 804,243.167 820,252.667 L 820,303.333 C 804,312.833 796,316 780,316 C 764,316 756,312.833 740,303.333 L 740,252.667"/>
    <path style="fill: none; fill-opacity:0; stroke-width: 2; stroke: #000000" d="M 740 252.667 C 756,262.167 764,265.333 780,265.333 C 796,265.333 804,262.167 820,252.667"/>
    <text font-size="12.7998" style="fill: #000000;text-anchor:middle;font-family:sans-serif;font-style:normal;font-weight:normal" x="780" y="280.333">
      <tspan x="780" y="280.333">Backup</tspan>
      <tspan x="780" y="296.333">Backend</tspan>
    </text>
  </g>
  <g>
    <line style="fill: none; fill-opacity:0; stroke-width: 2; stroke: #000000" x1="595" y1="28" x2="730.264" y2="28"/>
    <polygon style="fill: #000000" points="595,23 585,28 595,33 "/>
    <polygon style="fill: none; fill-opacity:0; stroke-width: 2; stroke: #000000" points="595,23 585,28 595,33 "/>
    <polygon style="fill: #000000" points="737.764,28 727.764,33 730.264,28 727.764,23 "/>
    <polygon style="fill: none; fill-opacity:0; stroke-width: 2; stroke: #000000" points="737.764,28 727.764,33 730.264,28 727.764,23 "/>
  </g>
  <g>
    <line style="fill: none; fill-opacity:0; stroke-width: 2; stroke: #000000" x1="595" y1="288" x2="730.264" y2="288"/>
    <polygon style="fill: #000000" points="595,283 585,288 595,293 "/>
    <polygon style="fill: none; fill-opacity:0; stroke-width: 2; stroke: #000000" points="595,283 585,288 595,293 "/>
    <polygon style="fill: #000000" points="737.764,288 727.764,293 730.264,288 727.764,283 "/>
    <polygon style="fill: none; fill-opacity:0; stroke-width: 2; stroke: #000000" points="737.764,288 727.764,293 730.264,288 727.764,283 "/>
  </g>
  <g>
    <line style="fill: none; fill-opacity:0; stroke-width: 2; stroke: #000000" x1="510.283" y1="51" x2="510.283" y2="70.2639"/>
    <polygon style="fill: #000000" points="515.283,51 510.283,41 505.283,51 "/>
    <polygon style="fill: none; fill-opacity:0; stroke-width: 2; stroke: #000000" points="515.283,51 510.283,41 505.283,51 "/>
    <polygon style="fill: #000000" points="510.283,77.7639 505.283,67.7639 510.283,70.2639 515.283,67.7639 "/>
    <polygon style="fill: none; fill-opacity:0; stroke-width: 2; stroke: #000000" points="510.283,77.7639 505.283,67.7639 510.283,70.2639 515.283,67.7639 "/>
  </g>
  <g>
    <line style="fill: none; fill-opacity:0; stroke-width: 2; stroke: #000000" x1="513.927" y1="251" x2="513.927" y2="270.264"/>
    <polygon style="fill: #000000" points="518.927,251 513.927,241 508.927,251 "/>
    <polygon style="fill: none; fill-opacity:0; stroke-width: 2; stroke: #000000" points="518.927,251 513.927,241 508.927,251 "/>
    <polygon style="fill: #000000" points="513.927,277.764 508.927,267.764 513.927,270.264 518.927,267.764 "/>
    <polygon style="fill: none; fill-opacity:0; stroke-width: 2; stroke: #000000" points="513.927,277.764 508.927,267.764 513.927,270.264 518.927,267.764 "/>
  </g>
</svg>
