<?xml version="1.0" encoding="UTF-8" standalone="no"?>
<!DOCTYPE svg PUBLIC "-//W3C//DTD SVG 1.0//EN" "http://www.w3.org/TR/2001/PR-SVG-20010719/DTD/svg10.dtd">
<svg width="47cm" height="19cm" viewBox="-61 -21 922 362" xmlns="http://www.w3.org/2000/svg" xmlns:xlink="http://www.w3.org/1999/xlink">
  <g>
    <rect style="fill: #ffffff" x="-60" y="-20" width="920" height="360"/>
    <rect style="fill: none; fill-opacity:0; stroke-width: 2; stroke: #000000" x="-60" y="-20" width="920" height="360"/>
    <text font-size="12.8" style="fill: #000000;text-anchor:middle;font-family:sans-serif;font-style:normal;font-weight:normal" x="400" y="163.9">
      <tspan x="400" y="163.9"></tspan>
    </text>
  </g>
  <g>
    <rect style="fill: #cccbd3" x="-20" y="60" width="420" height="200"/>
    <rect style="fill: none; fill-opacity:0; stroke-width: 2; stroke: #000000" x="-20" y="60" width="420" height="200"/>
    <text font-size="12.8" style="fill: #000000;text-anchor:middle;font-family:Montserrat;font-style:normal;font-weight:normal" x="190" y="164.4">
      <tspan x="190" y="164.4"></tspan>
    </text>
  </g>
  <text font-size="12.8" style="fill: #000000;text-anchor:start;font-family:sans-serif;font-style:normal;font-weight:normal" x="190" y="160">
    <tspan x="190" y="160"></tspan>
  </text>
  <g>
    <rect style="fill: #507dbc" x="420" y="0" width="300" height="140"/>
    <rect style="fill: none; fill-opacity:0; stroke-width: 2; stroke: #000000" x="420" y="0" width="300" height="140"/>
    <text font-size="12.8" style="fill: #000000;text-anchor:middle;font-family:sans-serif;font-style:normal;font-weight:normal" x="570" y="73.9">
      <tspan x="570" y="73.9"></tspan>
    </text>
  </g>
  <text font-size="12.8" style="fill: #000000;text-anchor:start;font-family:sans-serif;font-style:normal;font-weight:normal" x="190" y="160">
    <tspan x="190" y="160"></tspan>
  </text>
  <g>
    <rect style="fill: #507dbc" x="420" y="180" width="300" height="140"/>
    <rect style="fill: none; fill-opacity:0; stroke-width: 2; stroke: #000000" x="420" y="180" width="300" height="140"/>
    <text font-size="12.8" style="fill: #000000;text-anchor:middle;font-family:sans-serif;font-style:normal;font-weight:normal" x="570" y="253.9">
      <tspan x="570" y="253.9"></tspan>
    </text>
  </g>
  <g>
    <rect style="fill: #cccbd3" x="39.025" y="280" width="122.95" height="38"/>
    <rect style="fill: none; fill-opacity:0; stroke-width: 2; stroke: #000000" x="39.025" y="280" width="122.95" height="38"/>
    <text font-size="12.8" style="fill: #000000;text-anchor:middle;font-family:Montserrat;font-style:normal;font-weight:normal" x="100.5" y="303.4">
      <tspan x="100.5" y="303.4">Controller node</tspan>
    </text>
  </g>
  <g>
    <rect style="fill: #507dbc" x="220" y="280" width="124.1" height="38"/>
    <rect style="fill: none; fill-opacity:0; stroke-width: 2; stroke: #000000" x="220" y="280" width="124.1" height="38"/>
    <text font-size="12.8" style="fill: #ffffff;text-anchor:middle;font-family:Montserrat;font-style:normal;font-weight:normal" x="282.05" y="303.4">
      <tspan x="282.05" y="303.4">Storage node</tspan>
    </text>
  </g>
  <text font-size="12.8" style="fill: #000000;text-anchor:start;font-family:sans-serif;font-style:normal;font-weight:normal" x="100.5" y="299">
    <tspan x="100.5" y="299"></tspan>
    <tspan x="100.5" y="315"></tspan>
    <tspan x="100.5" y="331"></tspan>
  </text>
  <text font-size="12.8" style="fill: #000000;text-anchor:start;font-family:sans-serif;font-style:normal;font-weight:normal" x="100.5" y="299">
    <tspan x="100.5" y="299"></tspan>
  </text>
  <g>
    <rect style="fill: #f7a88a" x="0" y="140" width="144" height="40"/>
    <rect style="fill: none; fill-opacity:0; stroke-width: 2; stroke: #000000" x="0" y="140" width="144" height="40"/>
    <text font-size="12.8" style="fill: #000000;text-anchor:middle;font-family:Montserrat;font-style:normal;font-weight:normal" x="72" y="164.4">
      <tspan x="72" y="164.4">cinder-api</tspan>
    </text>
  </g>
  <g>
    <rect style="fill: #f7a88a" x="240" y="140" width="144" height="40"/>
    <rect style="fill: none; fill-opacity:0; stroke-width: 2; stroke: #000000" x="240" y="140" width="144" height="40"/>
    <text font-size="12.8" style="fill: #000000;text-anchor:middle;font-family:Montserrat;font-style:normal;font-weight:normal" x="312" y="164.4">
      <tspan x="312" y="164.4">cinder-scheduler</tspan>
    </text>
  </g>
  <g>
    <rect style="fill: #ffc192" x="440" y="80" width="144" height="40"/>
    <rect style="fill: none; fill-opacity:0; stroke-width: 2; stroke: #000000" x="440" y="80" width="144" height="40"/>
    <text font-size="12.8" style="fill: #000000;text-anchor:middle;font-family:Montserrat;font-style:normal;font-weight:normal" x="512" y="104.4">
      <tspan x="512" y="104.4">cinder-volume</tspan>
    </text>
  </g>
  <g>
    <rect style="fill: #ffc192" x="440" y="200" width="144" height="40"/>
    <rect style="fill: none; fill-opacity:0; stroke-width: 2; stroke: #000000" x="440" y="200" width="144" height="40"/>
    <text font-size="12.8" style="fill: #000000;text-anchor:middle;font-family:Montserrat;font-style:normal;font-weight:normal" x="512" y="224.4">
      <tspan x="512" y="224.4">cinder-volume</tspan>
    </text>
  </g>
  <g>
    <path style="fill: #ffc192" d="M 620 72.6667 C 636,63.1667 644,60 660,60 C 676,60 684,63.1667 700,72.6667 L 700,123.333 C 684,132.833 676,136 660,136 C 644,136 636,132.833 620,123.333 L 620,72.6667z"/>
    <path style="fill: none; fill-opacity:0; stroke-width: 2; stroke: #000000" d="M 620 72.6667 C 636,63.1667 644,60 660,60 C 676,60 684,63.1667 700,72.6667 L 700,123.333 C 684,132.833 676,136 660,136 C 644,136 636,132.833 620,123.333 L 620,72.6667"/>
    <path style="fill: none; fill-opacity:0; stroke-width: 2; stroke: #000000" d="M 620 72.6667 C 636,82.1667 644,85.3333 660,85.3333 C 676,85.3333 684,82.1667 700,72.6667"/>
    <text font-size="12.8" style="fill: #000000;text-anchor:middle;font-family:Montserrat;font-style:normal;font-weight:normal" x="660" y="100.333">
      <tspan x="660" y="100.333">Storage</tspan>
      <tspan x="660" y="116.333">Backend</tspan>
    </text>
  </g>
  <g>
    <path style="fill: #ffc192" d="M 620 192.667 C 636,183.167 644,180 660,180 C 676,180 684,183.167 700,192.667 L 700,243.333 C 684,252.833 676,256 660,256 C 644,256 636,252.833 620,243.333 L 620,192.667z"/>
    <path style="fill: none; fill-opacity:0; stroke-width: 2; stroke: #000000" d="M 620 192.667 C 636,183.167 644,180 660,180 C 676,180 684,183.167 700,192.667 L 700,243.333 C 684,252.833 676,256 660,256 C 644,256 636,252.833 620,243.333 L 620,192.667"/>
    <path style="fill: none; fill-opacity:0; stroke-width: 2; stroke: #000000" d="M 620 192.667 C 636,202.167 644,205.333 660,205.333 C 676,205.333 684,202.167 700,192.667"/>
    <text font-size="12.8" style="fill: #000000;text-anchor:middle;font-family:Montserrat;font-style:normal;font-weight:normal" x="660" y="220.333">
      <tspan x="660" y="220.333">Storage</tspan>
      <tspan x="660" y="236.333">Backend</tspan>
    </text>
  </g>
  <g>
    <line style="fill: none; fill-opacity:0; stroke-width: 2; stroke: #000000" x1="595.996" y1="218.865" x2="609.272" y2="218.686"/>
    <polygon style="fill: #000000" points="595.929,213.865 585.997,219 596.064,223.864 "/>
    <polygon style="fill: none; fill-opacity:0; stroke-width: 2; stroke: #000000" points="595.929,213.865 585.997,219 596.064,223.864 "/>
    <polygon style="fill: #000000" points="616.771,218.584 606.84,223.719 609.272,218.686 606.705,213.72 "/>
    <polygon style="fill: none; fill-opacity:0; stroke-width: 2; stroke: #000000" points="616.771,218.584 606.84,223.719 609.272,218.686 606.705,213.72 "/>
  </g>
  <g>
    <line style="fill: none; fill-opacity:0; stroke-width: 2; stroke: #000000" x1="595.996" y1="98.8649" x2="609.272" y2="98.6855"/>
    <polygon style="fill: #000000" points="595.929,93.8654 585.997,99 596.064,103.864 "/>
    <polygon style="fill: none; fill-opacity:0; stroke-width: 2; stroke: #000000" points="595.929,93.8654 585.997,99 596.064,103.864 "/>
    <polygon style="fill: #000000" points="616.771,98.5842 606.84,103.719 609.272,98.6855 606.705,93.7197 "/>
    <polygon style="fill: none; fill-opacity:0; stroke-width: 2; stroke: #000000" points="616.771,98.5842 606.84,103.719 609.272,98.6855 606.705,93.7197 "/>
  </g>
  <g>
    <rect style="fill: #f5e3e0" x="440" y="260" width="144" height="40"/>
    <rect style="fill: none; fill-opacity:0; stroke-width: 2; stroke: #000000" x="440" y="260" width="144" height="40"/>
    <text font-size="12.8" style="fill: #000000;text-anchor:middle;font-family:Montserrat;font-style:normal;font-weight:normal" x="512" y="284.4">
      <tspan x="512" y="284.4">cinder-backup</tspan>
    </text>
  </g>
  <g>
    <line style="fill: none; fill-opacity:0; stroke-width: 2; stroke: #000000" x1="145" y1="179.909" x2="429.607" y2="257.529"/>
    <polygon style="fill: #000000" points="436.843,259.503 425.88,261.695 429.607,257.529 428.511,252.048 "/>
    <polygon style="fill: none; fill-opacity:0; stroke-width: 2; stroke: #000000" points="436.843,259.503 425.88,261.695 429.607,257.529 428.511,252.048 "/>
  </g>
  <g>
    <rect style="fill: #f5e3e0" x="440" y="20" width="144" height="40"/>
    <rect style="fill: none; fill-opacity:0; stroke-width: 2; stroke: #000000" x="440" y="20" width="144" height="40"/>
    <text font-size="12.8" style="fill: #000000;text-anchor:middle;font-family:Montserrat;font-style:normal;font-weight:normal" x="512" y="44.4">
      <tspan x="512" y="44.4">cinder-backup</tspan>
    </text>
  </g>
  <g>
    <line style="fill: none; fill-opacity:0; stroke-width: 2; stroke: #000000" x1="145" y1="140.091" x2="429.607" y2="62.4708"/>
    <polygon style="fill: #000000" points="436.843,60.4974 428.511,67.9524 429.607,62.4708 425.88,58.3048 "/>
    <polygon style="fill: none; fill-opacity:0; stroke-width: 2; stroke: #000000" points="436.843,60.4974 428.511,67.9524 429.607,62.4708 425.88,58.3048 "/>
  </g>
  <g>
    <path style="fill: #f5e3e0" d="M 740 12.6667 C 756,3.16667 764,0 780,0 C 796,0 804,3.16667 820,12.6667 L 820,63.3333 C 804,72.8333 796,76 780,76 C 764,76 756,72.8333 740,63.3333 L 740,12.6667z"/>
    <path style="fill: none; fill-opacity:0; stroke-width: 2; stroke: #000000" d="M 740 12.6667 C 756,3.16667 764,0 780,0 C 796,0 804,3.16667 820,12.6667 L 820,63.3333 C 804,72.8333 796,76 780,76 C 764,76 756,72.8333 740,63.3333 L 740,12.6667"/>
    <path style="fill: none; fill-opacity:0; stroke-width: 2; stroke: #000000" d="M 740 12.6667 C 756,22.1667 764,25.3333 780,25.3333 C 796,25.3333 804,22.1667 820,12.6667"/>
    <text font-size="12.8" style="fill: #000000;text-anchor:middle;font-family:Montserrat;font-style:normal;font-weight:normal" x="780" y="40.3333">
      <tspan x="780" y="40.3333">Backup</tspan>
      <tspan x="780" y="56.3333">Backend</tspan>
    </text>
  </g>
  <g>
    <path style="fill: #f5e3e0" d="M 740 252.667 C 756,243.167 764,240 780,240 C 796,240 804,243.167 820,252.667 L 820,303.333 C 804,312.833 796,316 780,316 C 764,316 756,312.833 740,303.333 L 740,252.667z"/>
    <path style="fill: none; fill-opacity:0; stroke-width: 2; stroke: #000000" d="M 740 252.667 C 756,243.167 764,240 780,240 C 796,240 804,243.167 820,252.667 L 820,303.333 C 804,312.833 796,316 780,316 C 764,316 756,312.833 740,303.333 L 740,252.667"/>
    <path style="fill: none; fill-opacity:0; stroke-width: 2; stroke: #000000" d="M 740 252.667 C 756,262.167 764,265.333 780,265.333 C 796,265.333 804,262.167 820,252.667"/>
    <text font-size="12.8" style="fill: #000000;text-anchor:middle;font-family:Montserrat;font-style:normal;font-weight:normal" x="780" y="280.333">
      <tspan x="780" y="280.333">Backup</tspan>
      <tspan x="780" y="296.333">Backend</tspan>
    </text>
  </g>
  <g>
    <line style="fill: none; fill-opacity:0; stroke-width: 2; stroke: #000000" x1="594.764" y1="269.734" x2="650.473" y2="258.006"/>
    <polygon style="fill: #000000" points="593.734,264.841 584.979,271.794 595.794,274.627 "/>
    <polygon style="fill: none; fill-opacity:0; stroke-width: 2; stroke: #000000" points="593.734,264.841 584.979,271.794 595.794,274.627 "/>
    <polygon style="fill: #000000" points="657.812,256.461 649.056,263.414 650.473,258.006 646.996,253.628 "/>
    <polygon style="fill: none; fill-opacity:0; stroke-width: 2; stroke: #000000" points="657.812,256.461 649.056,263.414 650.473,258.006 646.996,253.628 "/>
  </g>
  <g>
    <line style="fill: none; fill-opacity:0; stroke-width: 2; stroke: #000000" x1="594.865" y1="49.7156" x2="650.383" y2="58.4815"/>
    <polygon style="fill: #000000" points="595.645,44.7768 584.988,48.156 594.086,54.6544 "/>
    <polygon style="fill: none; fill-opacity:0; stroke-width: 2; stroke: #000000" points="595.645,44.7768 584.988,48.156 594.086,54.6544 "/>
    <polygon style="fill: #000000" points="657.791,59.6513 647.134,63.0304 650.383,58.4815 648.693,53.1528 "/>
    <polygon style="fill: none; fill-opacity:0; stroke-width: 2; stroke: #000000" points="657.791,59.6513 647.134,63.0304 650.383,58.4815 648.693,53.1528 "/>
  </g>
  <g>
    <line style="fill: none; fill-opacity:0; stroke-width: 2; stroke: #000000" x1="595" y1="28" x2="730.264" y2="28"/>
    <polygon style="fill: #000000" points="595,23 585,28 595,33 "/>
    <polygon style="fill: none; fill-opacity:0; stroke-width: 2; stroke: #000000" points="595,23 585,28 595,33 "/>
    <polygon style="fill: #000000" points="737.764,28 727.764,33 730.264,28 727.764,23 "/>
    <polygon style="fill: none; fill-opacity:0; stroke-width: 2; stroke: #000000" points="737.764,28 727.764,33 730.264,28 727.764,23 "/>
  </g>
  <g>
    <line style="fill: none; fill-opacity:0; stroke-width: 2; stroke: #000000" x1="595" y1="288" x2="730.264" y2="288"/>
    <polygon style="fill: #000000" points="595,283 585,288 595,293 "/>
    <polygon style="fill: none; fill-opacity:0; stroke-width: 2; stroke: #000000" points="595,283 585,288 595,293 "/>
    <polygon style="fill: #000000" points="737.764,288 727.764,293 730.264,288 727.764,283 "/>
    <polygon style="fill: none; fill-opacity:0; stroke-width: 2; stroke: #000000" points="737.764,288 727.764,293 730.264,288 727.764,283 "/>
  </g>
</svg>
