<?xml version="1.0" encoding="UTF-8" standalone="no"?>
<!DOCTYPE svg PUBLIC "-//W3C//DTD SVG 1.0//EN" "http://www.w3.org/TR/2001/PR-SVG-20010719/DTD/svg10.dtd">
<svg width="47cm" height="19cm" viewBox="-61 -21 922 362" xmlns="http://www.w3.org/2000/svg" xmlns:xlink="http://www.w3.org/1999/xlink">
  <g>
    <rect style="fill: #ffffff" x="-60" y="-20" width="920" height="360"/>
    <rect style="fill: none; fill-opacity:0; stroke-width: 2; stroke: #000000" x="-60" y="-20" width="920" height="360"/>
    <text font-size="12.8" style="fill: #000000;text-anchor:middle;font-family:sans-serif;font-style:normal;font-weight:normal" x="400" y="163.9">
      <tspan x="400" y="163.9"></tspan>
    </text>
  </g>
  <g>
    <rect style="fill: #507dbc" x="120" y="140" width="144" height="40"/>
    <rect style="fill: none; fill-opacity:0; stroke-width: 2; stroke: #000000" x="120" y="140" width="144" height="40"/>
    <text font-size="12.8" style="fill: #000000;text-anchor:middle;font-family:Montserrat;font-style:normal;font-weight:normal" x="192" y="164.4">
      <tspan x="192" y="164.4">cinder-api</tspan>
    </text>
  </g>
  <g>
    <rect style="fill: #507dbc" x="320" y="140" width="144" height="40"/>
    <rect style="fill: none; fill-opacity:0; stroke-width: 2; stroke: #000000" x="320" y="140" width="144" height="40"/>
    <text font-size="12.8" style="fill: #000000;text-anchor:middle;font-family:Montserrat;font-style:normal;font-weight:normal" x="392" y="164.4">
      <tspan x="392" y="164.4">cinder-scheduler</tspan>
    </text>
  </g>
  <g>
    <rect style="fill: #507dbc" x="540" y="0" width="144" height="40"/>
    <rect style="fill: none; fill-opacity:0; stroke-width: 2; stroke: #000000" x="540" y="0" width="144" height="40"/>
    <text font-size="12.8" style="fill: #000000;text-anchor:middle;font-family:Montserrat;font-style:normal;font-weight:normal" x="612" y="24.4">
      <tspan x="612" y="24.4">cinder-volume</tspan>
    </text>
  </g>
  <g>
    <rect style="fill: #507dbc" x="540" y="60" width="144" height="40"/>
    <rect style="fill: none; fill-opacity:0; stroke-width: 2; stroke: #000000" x="540" y="60" width="144" height="40"/>
    <text font-size="12.8" style="fill: #000000;text-anchor:middle;font-family:Montserrat;font-style:normal;font-weight:normal" x="612" y="84.4">
      <tspan x="612" y="84.4">cinder-volume</tspan>
    </text>
  </g>
  <g>
    <path style="fill: #cccbd3" d="M 740 32.6667 C 756,23.1667 764,20 780,20 C 796,20 804,23.1667 820,32.6667 L 820,83.3333 C 804,92.8333 796,96 780,96 C 764,96 756,92.8333 740,83.3333 L 740,32.6667z"/>
    <path style="fill: none; fill-opacity:0; stroke-width: 2; stroke: #000000" d="M 740 32.6667 C 756,23.1667 764,20 780,20 C 796,20 804,23.1667 820,32.6667 L 820,83.3333 C 804,92.8333 796,96 780,96 C 764,96 756,92.8333 740,83.3333 L 740,32.6667"/>
    <path style="fill: none; fill-opacity:0; stroke-width: 2; stroke: #000000" d="M 740 32.6667 C 756,42.1667 764,45.3333 780,45.3333 C 796,45.3333 804,42.1667 820,32.6667"/>
    <text font-size="12.8" style="fill: #000000;text-anchor:middle;font-family:Montserrat;font-style:normal;font-weight:normal" x="780" y="60.3333">
      <tspan x="780" y="60.3333">Storage</tspan>
      <tspan x="780" y="76.3333">Backend</tspan>
    </text>
  </g>
  <g>
    <rect style="fill: #507dbc" x="540" y="280" width="144" height="40"/>
    <rect style="fill: none; fill-opacity:0; stroke-width: 2; stroke: #000000" x="540" y="280" width="144" height="40"/>
    <text font-size="12.8" style="fill: #000000;text-anchor:middle;font-family:Montserrat;font-style:normal;font-weight:normal" x="612" y="304.4">
      <tspan x="612" y="304.4">cinder-backup</tspan>
    </text>
  </g>
  <g>
    <rect style="fill: #507dbc" x="540" y="220" width="144" height="40"/>
    <rect style="fill: none; fill-opacity:0; stroke-width: 2; stroke: #000000" x="540" y="220" width="144" height="40"/>
    <text font-size="12.8" style="fill: #000000;text-anchor:middle;font-family:Montserrat;font-style:normal;font-weight:normal" x="612" y="244.4">
      <tspan x="612" y="244.4">cinder-backup</tspan>
    </text>
  </g>
  <g>
    <path style="fill: #cccbd3" d="M 740 252.667 C 756,243.167 764,240 780,240 C 796,240 804,243.167 820,252.667 L 820,303.333 C 804,312.833 796,316 780,316 C 764,316 756,312.833 740,303.333 L 740,252.667z"/>
    <path style="fill: none; fill-opacity:0; stroke-width: 2; stroke: #000000" d="M 740 252.667 C 756,243.167 764,240 780,240 C 796,240 804,243.167 820,252.667 L 820,303.333 C 804,312.833 796,316 780,316 C 764,316 756,312.833 740,303.333 L 740,252.667"/>
    <path style="fill: none; fill-opacity:0; stroke-width: 2; stroke: #000000" d="M 740 252.667 C 756,262.167 764,265.333 780,265.333 C 796,265.333 804,262.167 820,252.667"/>
    <text font-size="12.8" style="fill: #000000;text-anchor:middle;font-family:Montserrat;font-style:normal;font-weight:normal" x="780" y="280.333">
      <tspan x="780" y="280.333">Backup</tspan>
      <tspan x="780" y="296.333">Backend</tspan>
    </text>
  </g>
  <g>
    <rect style="fill: #507dbc" x="320" y="80" width="144" height="40"/>
    <rect style="fill: none; fill-opacity:0; stroke-width: 2; stroke: #000000" x="320" y="80" width="144" height="40"/>
    <text font-size="12.8" style="fill: #000000;text-anchor:middle;font-family:Montserrat;font-style:normal;font-weight:normal" x="392" y="104.4">
      <tspan x="392" y="104.4">cinder-scheduler</tspan>
    </text>
  </g>
  <g>
    <rect style="fill: #507dbc" x="320" y="200" width="144" height="40"/>
    <rect style="fill: none; fill-opacity:0; stroke-width: 2; stroke: #000000" x="320" y="200" width="144" height="40"/>
    <text font-size="12.8" style="fill: #000000;text-anchor:middle;font-family:Montserrat;font-style:normal;font-weight:normal" x="392" y="224.4">
      <tspan x="392" y="224.4">cinder-scheduler</tspan>
    </text>
  </g>
  <g>
    <rect style="fill: #cccbd3" x="-20" y="80" width="80" height="160"/>
    <rect style="fill: none; fill-opacity:0; stroke-width: 2; stroke: #000000" x="-20" y="80" width="80" height="160"/>
    <text font-size="12.8" style="fill: #000000;text-anchor:middle;font-family:Montserrat;font-style:normal;font-weight:normal" x="20" y="164.4">
      <tspan x="20" y="164.4">HAProxy</tspan>
    </text>
  </g>
  <g>
    <rect style="fill: #507dbc" x="120" y="80" width="144" height="40"/>
    <rect style="fill: none; fill-opacity:0; stroke-width: 2; stroke: #000000" x="120" y="80" width="144" height="40"/>
    <text font-size="12.8" style="fill: #000000;text-anchor:middle;font-family:Montserrat;font-style:normal;font-weight:normal" x="192" y="104.4">
      <tspan x="192" y="104.4">cinder-api</tspan>
    </text>
  </g>
  <g>
    <rect style="fill: #507dbc" x="120" y="200" width="144" height="40"/>
    <rect style="fill: none; fill-opacity:0; stroke-width: 2; stroke: #000000" x="120" y="200" width="144" height="40"/>
    <text font-size="12.8" style="fill: #000000;text-anchor:middle;font-family:Montserrat;font-style:normal;font-weight:normal" x="192" y="224.4">
      <tspan x="192" y="224.4">cinder-api</tspan>
    </text>
  </g>
  <g>
    <path style="fill: #cccbd3" d="M 520 132.667 C 536,123.167 544,120 560,120 C 576,120 584,123.167 600,132.667 L 600,183.333 C 584,192.833 576,196 560,196 C 544,196 536,192.833 520,183.333 L 520,132.667z"/>
    <path style="fill: none; fill-opacity:0; stroke-width: 2; stroke: #000000" d="M 520 132.667 C 536,123.167 544,120 560,120 C 576,120 584,123.167 600,132.667 L 600,183.333 C 584,192.833 576,196 560,196 C 544,196 536,192.833 520,183.333 L 520,132.667"/>
    <path style="fill: none; fill-opacity:0; stroke-width: 2; stroke: #000000" d="M 520 132.667 C 536,142.167 544,145.333 560,145.333 C 576,145.333 584,142.167 600,132.667"/>
    <text font-size="12.8" style="fill: #000000;text-anchor:middle;font-family:Montserrat;font-style:normal;font-weight:normal" x="560" y="160.333">
      <tspan x="560" y="160.333">Message</tspan>
      <tspan x="560" y="176.333">Queue</tspan>
    </text>
  </g>
  <g>
    <path style="fill: #507dbc" d="M 620 132.667 C 636,123.167 644,120 660,120 C 676,120 684,123.167 700,132.667 L 700,183.333 C 684,192.833 676,196 660,196 C 644,196 636,192.833 620,183.333 L 620,132.667z"/>
    <path style="fill: none; fill-opacity:0; stroke-width: 2; stroke: #000000" d="M 620 132.667 C 636,123.167 644,120 660,120 C 676,120 684,123.167 700,132.667 L 700,183.333 C 684,192.833 676,196 660,196 C 644,196 636,192.833 620,183.333 L 620,132.667"/>
    <path style="fill: none; fill-opacity:0; stroke-width: 2; stroke: #000000" d="M 620 132.667 C 636,142.167 644,145.333 660,145.333 C 676,145.333 684,142.167 700,132.667"/>
    <text font-size="12.8" style="fill: #000000;text-anchor:middle;font-family:Montserrat;font-style:normal;font-weight:normal" x="660" y="168.333">
      <tspan x="660" y="168.333">Database</tspan>
    </text>
  </g>
  <g>
    <rect style="fill: #507dbc" x="140" y="280" width="60" height="38"/>
    <rect style="fill: none; fill-opacity:0; stroke-width: 2; stroke: #000000" x="140" y="280" width="60" height="38"/>
    <text font-size="12.8" style="fill: #000000;text-anchor:middle;font-family:Montserrat;font-style:normal;font-weight:normal" x="170" y="303.4">
      <tspan x="170" y="303.4">X</tspan>
    </text>
  </g>
  <g>
    <rect style="fill: #f7a88a" x="220" y="280" width="60" height="38"/>
    <rect style="fill: none; fill-opacity:0; stroke-width: 2; stroke: #000000" x="220" y="280" width="60" height="38"/>
    <text font-size="12.8" style="fill: #000000;text-anchor:middle;font-family:Montserrat;font-style:normal;font-weight:normal" x="250" y="303.4">
      <tspan x="250" y="303.4">X+1</tspan>
    </text>
  </g>
  <text font-size="12.7998" style="fill: #000000;text-anchor:start;font-family:sans-serif;font-style:normal;font-weight:normal" x="170" y="299">
    <tspan x="170" y="299"></tspan>
  </text>
  <text font-size="12.7998" style="fill: #000000;text-anchor:start;font-family:sans-serif;font-style:normal;font-weight:normal" x="250" y="299">
    <tspan x="250" y="299"></tspan>
  </text>
</svg>
