<?xml version="1.0" encoding="UTF-8" standalone="no"?>
<!DOCTYPE svg PUBLIC "-//W3C//DTD SVG 1.0//EN" "http://www.w3.org/TR/2001/PR-SVG-20010719/DTD/svg10.dtd">
<svg width="47cm" height="19cm" viewBox="-61 -21 922 362" xmlns="http://www.w3.org/2000/svg" xmlns:xlink="http://www.w3.org/1999/xlink">
  <g>
    <rect style="fill: #ffffff" x="-60" y="-20" width="920" height="360"/>
    <rect style="fill: none; fill-opacity:0; stroke-width: 2; stroke: #000000" x="-60" y="-20" width="920" height="360"/>
    <text font-size="12.8" style="fill: #000000;text-anchor:middle;font-family:sans-serif;font-style:normal;font-weight:normal" x="400" y="163.9">
      <tspan x="400" y="163.9"></tspan>
    </text>
  </g>
  <g>
    <rect style="fill: #f7a88a" x="120" y="140" width="140" height="40"/>
    <rect style="fill: none; fill-opacity:0; stroke-width: 2; stroke: #000000" x="120" y="140" width="140" height="40"/>
    <text font-size="12.8" style="fill: #000000;text-anchor:middle;font-family:Montserrat;font-style:normal;font-weight:normal" x="190" y="164.4">
      <tspan x="190" y="164.4">cinder-api</tspan>
    </text>
  </g>
  <g>
    <rect style="fill: #f7a88a" x="320" y="140" width="140" height="40"/>
    <rect style="fill: none; fill-opacity:0; stroke-width: 2; stroke: #000000" x="320" y="140" width="140" height="40"/>
    <text font-size="12.8" style="fill: #000000;text-anchor:middle;font-family:Montserrat;font-style:normal;font-weight:normal" x="390" y="164.4">
      <tspan x="390" y="164.4">cinder-scheduler</tspan>
    </text>
  </g>
  <g>
    <rect style="fill: #f7a88a" x="540" y="0" width="140" height="40"/>
    <rect style="fill: none; fill-opacity:0; stroke-width: 2; stroke: #000000" x="540" y="0" width="140" height="40"/>
    <text font-size="12.8" style="fill: #000000;text-anchor:middle;font-family:Montserrat;font-style:normal;font-weight:normal" x="610" y="24.4">
      <tspan x="610" y="24.4">cinder-volume</tspan>
    </text>
  </g>
  <g>
    <path style="fill: #add8e6" d="M 740 12.6667 C 756,3.16667 764,0 780,0 C 796,0 804,3.16667 820,12.6667 L 820,63.3333 C 804,72.8333 796,76 780,76 C 764,76 756,72.8333 740,63.3333 L 740,12.6667z"/>
    <path style="fill: none; fill-opacity:0; stroke-width: 2; stroke: #000000" d="M 740 12.6667 C 756,3.16667 764,0 780,0 C 796,0 804,3.16667 820,12.6667 L 820,63.3333 C 804,72.8333 796,76 780,76 C 764,76 756,72.8333 740,63.3333 L 740,12.6667"/>
    <path style="fill: none; fill-opacity:0; stroke-width: 2; stroke: #000000" d="M 740 12.6667 C 756,22.1667 764,25.3333 780,25.3333 C 796,25.3333 804,22.1667 820,12.6667"/>
    <text font-size="12.8" style="fill: #000000;text-anchor:middle;font-family:Montserrat;font-style:normal;font-weight:normal" x="780" y="40.3333">
      <tspan x="780" y="40.3333">Storage</tspan>
      <tspan x="780" y="56.3333">Backend</tspan>
    </text>
  </g>
  <g>
    <rect style="fill: #f7a88a" x="540" y="280" width="140" height="40"/>
    <rect style="fill: none; fill-opacity:0; stroke-width: 2; stroke: #000000" x="540" y="280" width="140" height="40"/>
    <text font-size="12.8" style="fill: #000000;text-anchor:middle;font-family:Montserrat;font-style:normal;font-weight:normal" x="610" y="304.4">
      <tspan x="610" y="304.4">cinder-backup</tspan>
    </text>
  </g>
  <g>
    <rect style="fill: #f7a88a" x="540" y="220" width="140" height="40"/>
    <rect style="fill: none; fill-opacity:0; stroke-width: 2; stroke: #000000" x="540" y="220" width="140" height="40"/>
    <text font-size="12.8" style="fill: #000000;text-anchor:middle;font-family:Montserrat;font-style:normal;font-weight:normal" x="610" y="244.4">
      <tspan x="610" y="244.4">cinder-backup</tspan>
    </text>
  </g>
  <g>
    <path style="fill: #add8e6" d="M 740 212.667 C 756,203.167 764,200 780,200 C 796,200 804,203.167 820,212.667 L 820,263.333 C 804,272.833 796,276 780,276 C 764,276 756,272.833 740,263.333 L 740,212.667z"/>
    <path style="fill: none; fill-opacity:0; stroke-width: 2; stroke: #000000" d="M 740 212.667 C 756,203.167 764,200 780,200 C 796,200 804,203.167 820,212.667 L 820,263.333 C 804,272.833 796,276 780,276 C 764,276 756,272.833 740,263.333 L 740,212.667"/>
    <path style="fill: none; fill-opacity:0; stroke-width: 2; stroke: #000000" d="M 740 212.667 C 756,222.167 764,225.333 780,225.333 C 796,225.333 804,222.167 820,212.667"/>
    <text font-size="12.8" style="fill: #000000;text-anchor:middle;font-family:Montserrat;font-style:normal;font-weight:normal" x="780" y="240.333">
      <tspan x="780" y="240.333">Backup</tspan>
      <tspan x="780" y="256.333">Backend</tspan>
    </text>
  </g>
  <g>
    <rect style="fill: #f7a88a" x="320" y="80" width="140" height="40"/>
    <rect style="fill: none; fill-opacity:0; stroke-width: 2; stroke: #000000" x="320" y="80" width="140" height="40"/>
    <text font-size="12.8" style="fill: #000000;text-anchor:middle;font-family:Montserrat;font-style:normal;font-weight:normal" x="390" y="104.4">
      <tspan x="390" y="104.4">cinder-scheduler</tspan>
    </text>
  </g>
  <g>
    <rect style="fill: #f7a88a" x="320" y="200" width="140" height="40"/>
    <rect style="fill: none; fill-opacity:0; stroke-width: 2; stroke: #000000" x="320" y="200" width="140" height="40"/>
    <text font-size="12.8" style="fill: #000000;text-anchor:middle;font-family:Montserrat;font-style:normal;font-weight:normal" x="390" y="224.4">
      <tspan x="390" y="224.4">cinder-scheduler</tspan>
    </text>
  </g>
  <g>
    <rect style="fill: #add8e6" x="-20" y="80" width="80" height="160"/>
    <rect style="fill: none; fill-opacity:0; stroke-width: 2; stroke: #000000" x="-20" y="80" width="80" height="160"/>
    <text font-size="12.8" style="fill: #000000;text-anchor:middle;font-family:Montserrat;font-style:normal;font-weight:normal" x="20" y="164.4">
      <tspan x="20" y="164.4">HAProxy</tspan>
    </text>
  </g>
  <g>
    <rect style="fill: #f7a88a" x="120" y="200" width="140" height="40"/>
    <rect style="fill: none; fill-opacity:0; stroke-width: 2; stroke: #000000" x="120" y="200" width="140" height="40"/>
    <text font-size="12.8" style="fill: #000000;text-anchor:middle;font-family:Montserrat;font-style:normal;font-weight:normal" x="190" y="224.4">
      <tspan x="190" y="224.4">cinder-api</tspan>
    </text>
  </g>
  <g>
    <path style="fill: #f7a88a" d="M 640 73.3333 C 656,63.3333 664,60 680,60 C 696,60 704,63.3333 720,73.3333 L 720,126.667 C 704,136.667 696,140 680,140 C 664,140 656,136.667 640,126.667 L 640,73.3333z"/>
    <path style="fill: none; fill-opacity:0; stroke-width: 2; stroke: #000000" d="M 640 73.3333 C 656,63.3333 664,60 680,60 C 696,60 704,63.3333 720,73.3333 L 720,126.667 C 704,136.667 696,140 680,140 C 664,140 656,136.667 640,126.667 L 640,73.3333"/>
    <path style="fill: none; fill-opacity:0; stroke-width: 2; stroke: #000000" d="M 640 73.3333 C 656,83.3333 664,86.6667 680,86.6667 C 696,86.6667 704,83.3333 720,73.3333"/>
    <text font-size="12.8" style="fill: #000000;text-anchor:middle;font-family:Montserrat;font-style:normal;font-weight:normal" x="680" y="110.667">
      <tspan x="680" y="110.667">Database</tspan>
    </text>
  </g>
  <g>
    <rect style="fill: #507dbc" x="120" y="280" width="60" height="38"/>
    <rect style="fill: none; fill-opacity:0; stroke-width: 2; stroke: #000000" x="120" y="280" width="60" height="38"/>
    <text font-size="12.8" style="fill: #000000;text-anchor:middle;font-family:Montserrat;font-style:normal;font-weight:normal" x="150" y="303.4">
      <tspan x="150" y="303.4">X</tspan>
    </text>
  </g>
  <g>
    <rect style="fill: #f7a88a" x="200" y="280" width="60" height="38"/>
    <rect style="fill: none; fill-opacity:0; stroke-width: 2; stroke: #000000" x="200" y="280" width="60" height="38"/>
    <text font-size="12.8" style="fill: #000000;text-anchor:middle;font-family:Montserrat;font-style:normal;font-weight:normal" x="230" y="303.4">
      <tspan x="230" y="303.4">X+1</tspan>
    </text>
  </g>
  <text font-size="12.8" style="fill: #000000;text-anchor:start;font-family:sans-serif;font-style:normal;font-weight:normal" x="150" y="299">
    <tspan x="150" y="299"></tspan>
  </text>
  <text font-size="12.8" style="fill: #000000;text-anchor:start;font-family:sans-serif;font-style:normal;font-weight:normal" x="230" y="299">
    <tspan x="230" y="299"></tspan>
  </text>
  <g>
    <rect style="fill: #f7a88a" x="540" y="160" width="140" height="40"/>
    <rect style="fill: none; fill-opacity:0; stroke-width: 2; stroke: #000000" x="540" y="160" width="140" height="40"/>
    <text font-size="12.8" style="fill: #000000;text-anchor:middle;font-family:Montserrat;font-style:normal;font-weight:normal" x="610" y="184.4">
      <tspan x="610" y="184.4">cinder-backup</tspan>
    </text>
  </g>
  <text font-size="12.8" style="fill: #000000;text-anchor:start;font-family:sans-serif;font-style:normal;font-weight:normal" x="398.178" y="14.5421">
    <tspan x="398.178" y="14.5421"></tspan>
  </text>
  <g>
    <rect style="fill: #f7a88a" x="120" y="80" width="140" height="40"/>
    <rect style="fill: none; fill-opacity:0; stroke-width: 2; stroke: #000000" x="120" y="80" width="140" height="40"/>
    <text font-size="12.8" style="fill: #000000;text-anchor:middle;font-family:Montserrat;font-style:normal;font-weight:normal" x="190" y="104.4">
      <tspan x="190" y="104.4">cinder-api</tspan>
    </text>
  </g>
  <g>
    <ellipse style="fill: #add8e6" cx="544.725" cy="100" rx="44.7249" ry="40"/>
    <ellipse style="fill: none; fill-opacity:0; stroke-width: 2; stroke: #000000" cx="544.725" cy="100" rx="44.7249" ry="40"/>
    <line style="fill: none; fill-opacity:0; stroke-width: 2; stroke: #000000" x1="544.725" y1="140" x2="589.45" y2="140"/>
    <text font-size="12.8" style="fill: #000000;text-anchor:middle;font-family:Montserrat;font-style:normal;font-weight:normal" x="544.725" y="96">
      <tspan x="544.725" y="96">Message</tspan>
      <tspan x="544.725" y="112">Queue</tspan>
    </text>
  </g>
  <text font-size="12.8" style="fill: #000000;text-anchor:start;font-family:sans-serif;font-style:normal;font-weight:normal" x="544.725" y="108">
    <tspan x="544.725" y="108"></tspan>
  </text>
  <g>
    <rect style="fill: #add8e6" x="280" y="280" width="95.7" height="38"/>
    <rect style="fill: none; fill-opacity:0; stroke-width: 2; stroke: #000000" x="280" y="280" width="95.7" height="38"/>
    <text font-size="12.8" style="fill: #000000;text-anchor:middle;font-family:Montserrat;font-style:normal;font-weight:normal" x="327.85" y="303.4">
      <tspan x="327.85" y="303.4">non-Cinder</tspan>
    </text>
  </g>
</svg>
