<?xml version="1.0" encoding="UTF-8" standalone="no"?>
<svg xmlns:dc="http://purl.org/dc/elements/1.1/" xmlns:cc="http://creativecommons.org/ns#" xmlns:rdf="http://www.w3.org/1999/02/22-rdf-syntax-ns#" xmlns:svg="http://www.w3.org/2000/svg" xmlns="http://www.w3.org/2000/svg" viewBox="0 0 97.333336 65.333336" height="65.333336" width="97.333336" xml:space="preserve" id="svg2" version="1.1"><metadata id="metadata8"><rdf:RDF><cc:Work rdf:about=""><dc:format>image/svg+xml</dc:format><dc:type rdf:resource="http://purl.org/dc/dcmitype/StillImage"/></cc:Work></rdf:RDF></metadata><defs id="defs6"/><g transform="matrix(1.3333333,0,0,-1.3333333,0,65.333333)" id="g10"><g transform="scale(0.1)" id="g12"><path id="path14" style="fill:#0071C5;fill-opacity:1;fill-rule:nonzero;stroke:none" d="M 342.031,61.5508 C 199.73,48.4219 51.4492,69.0898 30.6602,180.301 20.5117,235.102 45.5117,293.23 78.6289,329.359 V 348.66 C 18.9805,296.309 -13.3594,230.102 5.26953,151.859 29.0586,51.5508 156.289,-5.28906 350.59,13.5781 c 76.871,7.461 177.461,32.1914 247.422,70.6211 V 138.738 C 534.488,100.922 429.488,69.6719 342.031,61.5508 Z M 716.84,349.949 C 683.09,514.711 363.16,525.18 156.949,399.629 V 385.77 c 205.981,105.902 498.172,105.269 524.77,-46.532 8.941,-50.187 -19.34,-102.5 -69.879,-132.609 v -39.418 c 60.781,22.309 123.121,94.418 105,182.738"/><path id="path16" style="fill:#0071C5;fill-opacity:1;fill-rule:nonzero;stroke:none" d="m 586.48,373.93 h -37.3 V 207.801 c 0,-19.449 9.41,-36.41 37.3,-39.102 V 373.93"/><path id="path18" style="fill:#0071C5;fill-opacity:1;fill-rule:nonzero;stroke:none" d="m 142.301,313.27 h -37.379 l -0.043,-108.52 c 0,-19.57 9.461,-36.48 37.422,-39.141 V 313.27"/><path id="path20" style="fill:#0071C5;fill-opacity:1;fill-rule:nonzero;stroke:none" d="m 104.922,333.539 h 37.2695 v 35.3516 H 104.922 Z"/><path id="path22" style="fill:#0071C5;fill-opacity:1;fill-rule:nonzero;stroke:none" d="m 365.699,167.328 c -30.187,0 -42.969,21.024 -42.969,41.684 v 144.136 h 37 V 313.27 h 27.848 V 283.422 H 359.73 V 211.27 c 0,-8.391 3.981,-13.122 12.77,-13.122 h 15.078 v -30.82 h -21.879"/><path id="path24" style="fill:#0071C5;fill-opacity:1;fill-rule:nonzero;stroke:none" d="m 433.75,228.738 c 0,-18.91 11.84,-32.816 32.77,-32.816 16.41,0 24.5,4.527 33.992,13.906 l 22.847,-21.758 c -14.648,-14.492 -30,-23.281 -57.109,-23.281 -35.391,0 -69.301,19.301 -69.301,75.633 0,48.117 29.653,75.348 68.481,75.348 39.492,0 62.191,-31.879 62.191,-73.668 V 228.738 H 433.75 m 30.078,56.442 c -12.656,0 -22.379,-6.52 -26.527,-15.309 -2.379,-5.312 -3.281,-9.422 -3.551,-15.902 h 56.988 c -0.699,15.902 -7.929,31.211 -26.91,31.211"/><path id="path26" style="fill:#0071C5;fill-opacity:1;fill-rule:nonzero;stroke:none" d="m 242.73,283.422 c 10.86,0 15.36,-5.352 15.36,-14.063 v -102.23 h 36.988 v 102.43 c 0,20.781 -11.058,43.671 -43.558,43.671 l -76.399,0.04 V 167.129 h 37.027 v 116.293 h 30.582"/><path id="path28" style="fill:#0071C5;fill-opacity:1;fill-rule:nonzero;stroke:none" d="m 626.641,344.238 c -8.243,0 -14.801,6.641 -14.801,14.852 0,8.199 6.558,14.84 14.801,14.84 8.16,0 14.879,-6.641 14.879,-14.84 0,-8.211 -6.719,-14.852 -14.879,-14.852 z m 0,27.231 c -6.801,0 -12.231,-5.59 -12.231,-12.379 0,-6.801 5.43,-12.309 12.231,-12.309 6.757,0 12.379,5.508 12.379,12.309 0,6.789 -5.622,12.379 -12.379,12.379 z m 6.558,-21.25 h -2.769 c -0.231,0 -0.469,0.16 -0.551,0.351 l -3.75,6.371 c -0.109,0.161 -0.43,0.309 -0.539,0.309 0,0 -0.629,0 -1.102,0 -0.269,0 -0.508,0 -0.617,0 v -6.371 c 0,-0.309 -0.199,-0.66 -0.633,-0.66 h -2.5 c -0.347,0 -0.617,0.351 -0.617,0.66 v 16.062 c 0,0.938 0.309,1.329 1.129,1.438 0.898,0.082 3.238,0.199 4.57,0.199 4.61,0 7.34,-1.367 7.34,-5.656 v -0.32 c 0,-2.653 -1.32,-4.102 -3.359,-4.723 l 3.91,-6.641 c 0.078,-0.117 0.117,-0.359 0.117,-0.468 0,-0.282 -0.156,-0.551 -0.629,-0.551 z m -3.59,12.703 c 0,1.789 -1.089,2.379 -3.48,2.379 -0.309,0 -1.09,0 -1.719,0 -0.269,0 -0.539,0 -0.66,0 v -5.121 c 0.391,0 2.07,-0.078 2.379,-0.078 2.391,0 3.48,0.82 3.48,2.5 v 0.32"/></g></g></svg>